<svg width="21" height="21" viewBox="0 0 21 21" fill="none" xmlns="http://www.w3.org/2000/svg">
<g clip-path="url(#clip0_281_732)">
<path fill-rule="evenodd" clip-rule="evenodd" d="M9.06659 1.5855C9.07197 1.82729 8.98112 2.06132 8.814 2.23614C8.64688 2.41096 8.41718 2.51227 8.17539 2.51778C5.58202 2.577 4.45583 2.84159 3.72319 3.5685C3.09085 4.19893 2.79665 5.13694 2.69731 7.11899C2.69492 7.24095 2.66809 7.3612 2.61841 7.47262C2.56873 7.58404 2.4972 7.68436 2.40807 7.76764C2.31893 7.85093 2.214 7.9155 2.09947 7.95751C1.98495 7.99953 1.86316 8.01816 1.74131 8.01228C1.61946 8.0064 1.50003 7.97614 1.39008 7.92329C1.28013 7.87044 1.18189 7.79608 1.10119 7.7046C1.02049 7.61311 0.958954 7.50638 0.920229 7.39069C0.881504 7.27501 0.866375 7.15274 0.875738 7.03111C0.977944 4.99271 1.28074 3.43095 2.43654 2.27993C3.74612 0.974171 5.60876 0.751609 8.13527 0.694297C8.3769 0.689173 8.61068 0.780143 8.7853 0.947235C8.95991 1.11433 9.06108 1.34388 9.06659 1.5855ZM12.7441 1.5855C12.7496 1.34388 12.8508 1.11433 13.0254 0.947235C13.2 0.780143 13.4338 0.689173 13.6754 0.694297C16.2 0.751609 18.0627 0.974171 19.3732 2.27993C20.529 3.43095 20.8328 4.99271 20.935 7.03111C20.9442 7.15253 20.929 7.27457 20.8902 7.39003C20.8515 7.50548 20.7901 7.61201 20.7095 7.70334C20.629 7.79468 20.531 7.86896 20.4213 7.92181C20.3116 7.97465 20.1924 8.005 20.0708 8.01106C19.9491 8.01712 19.8275 7.99877 19.7131 7.95708C19.5987 7.9154 19.4938 7.85123 19.4046 7.76835C19.3153 7.68548 19.2436 7.58558 19.1936 7.47455C19.1436 7.36351 19.1163 7.24359 19.1134 7.12185C19.0179 5.13981 18.7208 4.2018 18.0875 3.57137C17.3558 2.84159 16.2287 2.577 13.6353 2.52064C13.5154 2.51792 13.3971 2.49155 13.2873 2.44305C13.1776 2.39455 13.0785 2.32486 12.9957 2.238C12.9129 2.15113 12.8481 2.04878 12.8049 1.93681C12.7617 1.82484 12.7411 1.70546 12.7441 1.5855ZM1.74211 13.4606C1.98348 13.4489 2.21963 13.5334 2.39872 13.6957C2.5778 13.8579 2.68519 14.0846 2.69731 14.326C2.79283 16.308 3.0899 17.246 3.72319 17.8765C4.45488 18.6062 5.58202 18.8718 8.17539 18.9272C8.29531 18.9298 8.41354 18.9561 8.52332 19.0044C8.6331 19.0527 8.73229 19.1222 8.81523 19.2088C8.89816 19.2955 8.96321 19.3976 9.00667 19.5094C9.05013 19.6212 9.07114 19.7405 9.0685 19.8604C9.06587 19.9803 9.03964 20.0986 8.99132 20.2084C8.94299 20.3181 8.87352 20.4173 8.78686 20.5003C8.7002 20.5832 8.59805 20.6482 8.48625 20.6917C8.37446 20.7352 8.25519 20.7562 8.13527 20.7535C5.60972 20.6962 3.74803 20.4737 2.43749 19.1679C1.28074 18.0169 0.977944 16.4504 0.875738 14.4167C0.869822 14.2971 0.887541 14.1774 0.927882 14.0646C0.968223 13.9517 1.0304 13.848 1.11085 13.7592C1.1913 13.6704 1.28846 13.5983 1.39677 13.5471C1.50509 13.4958 1.62243 13.4664 1.74211 13.4606ZM20.0686 13.4606C20.31 13.4727 20.5366 13.5801 20.6989 13.7592C20.8612 13.9382 20.9457 14.1744 20.934 14.4158C20.8328 16.4494 20.53 18.0159 19.3742 19.167C18.0636 20.4727 16.202 20.6953 13.6764 20.7526C13.5567 20.7553 13.4377 20.7344 13.3261 20.6911C13.2145 20.6478 13.1125 20.5829 13.026 20.5002C12.9395 20.4175 12.8701 20.3185 12.8218 20.209C12.7735 20.0995 12.7473 19.9815 12.7446 19.8619C12.7419 19.7422 12.7628 19.6232 12.8061 19.5116C12.8494 19.4 12.9143 19.298 12.997 19.2115C13.0797 19.125 13.1786 19.0556 13.2882 19.0073C13.3977 18.959 13.5157 18.9328 13.6353 18.9301C16.2287 18.8708 17.3549 18.6053 18.0875 17.8793C18.7199 17.2489 19.0141 16.3109 19.1134 14.3288C19.1189 14.2091 19.148 14.0915 19.199 13.983C19.2501 13.8745 19.322 13.7771 19.4108 13.6964C19.4995 13.6158 19.6033 13.5534 19.7162 13.5129C19.8291 13.4725 19.9488 13.4547 20.0686 13.4606Z" fill="#7E6969"/>
<path d="M7.86231 8.39041C7.86155 7.78985 8.03894 7.20257 8.37204 6.70286C8.70514 6.20315 9.17898 5.81347 9.7336 5.58313C10.2882 5.35278 10.8987 5.29212 11.4878 5.40882C12.0769 5.52552 12.6182 5.81433 13.0431 6.23872C13.468 6.66311 13.7575 7.204 13.875 7.79296C13.9924 8.38191 13.9325 8.99247 13.7029 9.54739C13.4732 10.1023 13.0841 10.5766 12.5848 10.9104C12.0856 11.2441 11.4985 11.4222 10.8979 11.4222C10.4995 11.4225 10.105 11.3442 9.73684 11.192C9.36867 11.0398 9.0341 10.8165 8.75221 10.535C8.47033 10.2535 8.24666 9.91919 8.09397 9.55122C7.94128 9.18324 7.86256 8.7888 7.86231 8.39041Z" fill="#7E6969"/>
<path d="M6.22432 15.8946C6.09011 15.7663 6.0123 15.5901 6.008 15.4045C6.0037 15.2189 6.07326 15.0393 6.20139 14.905C6.81718 14.2816 7.55074 13.7868 8.35943 13.4494C9.16812 13.112 10.0358 12.9387 10.9121 12.9396C11.7883 12.9405 12.6556 13.1155 13.4637 13.4546C14.2717 13.7936 15.0042 14.2899 15.6187 14.9145C15.7107 15.0146 15.7716 15.1393 15.7939 15.2733C15.8162 15.4074 15.799 15.5451 15.7444 15.6695C15.6898 15.794 15.6002 15.8999 15.4865 15.9743C15.3727 16.0487 15.2398 16.0883 15.1039 16.0885H6.70192C6.52381 16.0871 6.35296 16.0177 6.22432 15.8946Z" fill="#7E6969"/>
</g>
<defs>
<clipPath id="clip0_281_732">
<rect width="20.0592" height="20.0592" fill="white" transform="translate(0.875977 0.694336)"/>
</clipPath>
</defs>
</svg>
