<svg width="20" height="17" viewBox="0 0 20 17" fill="none" xmlns="http://www.w3.org/2000/svg">
<path fill-rule="evenodd" clip-rule="evenodd" d="M12.7189 0.450329C11.0317 0.407345 9.34359 0.407345 7.65635 0.450329H7.6105C6.52799 0.446063 5.44644 0.515315 4.37332 0.657608C3.5338 0.763611 2.75141 1.13938 2.14388 1.72839C1.56274 2.32963 1.1915 3.1026 1.08551 3.93204C0.948701 4.97865 0.884867 6.03351 0.894471 7.08898V7.13961C0.876322 7.99929 0.876322 8.85897 0.894471 9.72438V9.77501C0.884873 10.8305 0.948707 11.8853 1.08551 12.932C1.1915 13.7614 1.56274 14.5344 2.14388 15.1356C2.7518 15.7236 3.53415 16.0983 4.37332 16.2035C5.44611 16.3461 6.52733 16.4156 7.60954 16.4118H7.66017C9.35183 16.4538 11.0273 16.4538 12.7227 16.4118H12.7686C13.8508 16.4156 14.932 16.3461 16.0048 16.2035C16.8433 16.1138 17.6261 15.7406 18.2239 15.1458C18.8217 14.551 19.1987 13.77 19.2926 12.932C19.4294 11.8853 19.4933 10.8305 19.4837 9.77501V9.72438C19.5018 8.8647 19.5018 8.00502 19.4837 7.13961V7.08898C19.4933 6.03351 19.4294 4.97865 19.2926 3.93204C19.1866 3.1026 18.8154 2.32963 18.2343 1.72839C17.627 1.13957 16.8449 0.76381 16.0058 0.657608C14.9326 0.515948 13.8511 0.447334 12.7686 0.452239L12.7189 0.450329ZM6.1882 4.84139C6.03987 4.75374 5.8628 4.7286 5.69593 4.7715C5.52907 4.8144 5.38608 4.92184 5.29843 5.07016C5.21078 5.21849 5.18563 5.39556 5.22854 5.56243C5.27144 5.72929 5.37887 5.87228 5.5272 5.95993L8.07568 7.46724C8.69947 7.90372 9.4301 8.16256 10.1895 8.21612C10.9491 8.16228 11.6797 7.9031 12.3034 7.46629L14.8519 5.95898C15.0002 5.87132 15.1076 5.72834 15.1505 5.56147C15.1934 5.39461 15.1683 5.21754 15.0807 5.06921C15.0373 4.99576 14.9798 4.93159 14.9116 4.88034C14.8434 4.8291 14.7658 4.79179 14.6831 4.77055C14.5163 4.72764 14.3392 4.75278 14.1909 4.84044L11.6414 6.34775C11.2164 6.66338 10.7156 6.86109 10.1895 6.92087C9.66353 6.86109 9.16265 6.66338 8.73763 6.34775L6.1882 4.84139Z" fill="#7E6969"/>
</svg>
