<svg width="18" height="21" viewBox="0 0 18 21" fill="none" xmlns="http://www.w3.org/2000/svg">
<path fill-rule="evenodd" clip-rule="evenodd" d="M8.66661 2.36402C7.77994 2.36402 6.92958 2.71625 6.30261 3.34322C5.67563 3.97019 5.3234 4.82055 5.3234 5.70722V7.19734C6.39132 7.15913 7.48694 7.14003 8.66661 7.14003C9.84628 7.14003 10.9419 7.15913 12.0098 7.19734V5.70722C12.0098 4.82055 11.6576 3.97019 11.0306 3.34322C10.4036 2.71625 9.55328 2.36402 8.66661 2.36402ZM3.413 5.70722V7.40462C2.66803 7.63818 2.00505 8.07922 1.50175 8.67607C0.998454 9.27292 0.675688 10.0009 0.571274 10.7746C0.410148 11.8643 0.32239 12.9637 0.308594 14.0652C0.32239 15.1668 0.410148 16.2661 0.571274 17.3559C0.695509 18.2988 1.14539 19.1686 1.84311 19.8148C2.54082 20.4611 3.44247 20.8432 4.39208 20.8949C5.75611 20.958 7.14211 20.9905 8.66661 20.9905C10.1911 20.9905 11.5762 20.958 12.9411 20.8949C13.8908 20.8432 14.7924 20.4611 15.4901 19.8148C16.1878 19.1686 16.6377 18.2988 16.7619 17.3559C16.923 16.2661 17.0108 15.1668 17.0246 14.0652C17.0111 12.9637 16.9237 11.8644 16.7629 10.7746C16.6584 10.0007 16.3355 9.27273 15.832 8.67587C15.3286 8.079 14.6654 7.63803 13.9202 7.40462V5.70722C13.9202 4.31388 13.3667 2.9776 12.3815 1.99236C11.3962 1.00712 10.06 0.453613 8.66661 0.453613C7.27327 0.453613 5.93699 1.00712 4.95175 1.99236C3.9665 2.9776 3.413 4.31388 3.413 5.70722ZM13.4426 14.0557C13.4426 13.8024 13.342 13.5594 13.1628 13.3803C12.9837 13.2011 12.7408 13.1005 12.4874 13.1005C12.2341 13.1005 11.9911 13.2011 11.812 13.3803C11.6329 13.5594 11.5322 13.8024 11.5322 14.0557V14.0652C11.5322 14.3186 11.6329 14.5615 11.812 14.7407C11.9911 14.9198 12.2341 15.0204 12.4874 15.0204C12.7408 15.0204 12.9837 14.9198 13.1628 14.7407C13.342 14.5615 13.4426 14.3186 13.4426 14.0652V14.0557ZM8.66661 13.1005C8.91995 13.1005 9.1629 13.2011 9.34204 13.3803C9.52118 13.5594 9.62181 13.8024 9.62181 14.0557V14.0652C9.62181 14.3186 9.52118 14.5615 9.34204 14.7407C9.1629 14.9198 8.91995 15.0204 8.66661 15.0204C8.41328 15.0204 8.17032 14.9198 7.99118 14.7407C7.81205 14.5615 7.71141 14.3186 7.71141 14.0652V14.0557C7.71141 13.8024 7.81205 13.5594 7.99118 13.3803C8.17032 13.2011 8.41328 13.1005 8.66661 13.1005ZM5.801 14.0557C5.801 13.8024 5.70037 13.5594 5.52123 13.3803C5.3421 13.2011 5.09914 13.1005 4.8458 13.1005C4.59247 13.1005 4.34951 13.2011 4.17037 13.3803C3.99124 13.5594 3.8906 13.8024 3.8906 14.0557V14.0652C3.8906 14.3186 3.99124 14.5615 4.17037 14.7407C4.34951 14.9198 4.59247 15.0204 4.8458 15.0204C5.09914 15.0204 5.3421 14.9198 5.52123 14.7407C5.70037 14.5615 5.801 14.3186 5.801 14.0652V14.0557Z" fill="#7E6969"/>
</svg>
