<svg width="19" height="20" viewBox="0 0 19 20" fill="none" xmlns="http://www.w3.org/2000/svg">
<g clip-path="url(#clip0_281_748)">
<path d="M14.9281 12.7487C15.0332 12.8117 15.1641 12.8853 15.3102 12.9684C16.1357 13.3961 16.9056 13.9235 17.6027 14.5387C18.0759 14.9568 18.3898 15.5259 18.491 16.1492C18.5147 16.5178 18.4504 16.8867 18.3035 17.2255C18.1565 17.5643 17.931 17.8633 17.6457 18.0978C17.1342 18.6485 16.5191 19.0929 15.8356 19.4055C15.1521 19.718 14.4136 19.8927 13.6625 19.9194H5.67127C4.92015 19.8927 4.18168 19.718 3.49818 19.4055C2.81467 19.0929 2.19955 18.6485 1.68808 18.0978C1.40269 17.8634 1.17718 17.5644 1.03019 17.2255C0.883197 16.8867 0.818939 16.5178 0.842723 16.1492C0.943947 15.5259 1.25783 14.9568 1.73106 14.5387C2.42812 13.9235 3.19804 13.3961 4.02354 12.9684C4.17065 12.8853 4.30151 12.8117 4.40563 12.7487C5.99911 11.8072 7.81604 11.3105 9.66688 11.3105C11.5177 11.3105 13.3346 11.8072 14.9281 12.7487Z" fill="#7E6969"/>
<path d="M4.90918 5.19402C4.90918 4.253 5.18822 3.33312 5.71102 2.55069C6.23382 1.76827 6.9769 1.15844 7.84629 0.79833C8.71567 0.438219 9.67232 0.343997 10.5953 0.52758C11.5182 0.711163 12.366 1.16431 13.0314 1.8297C13.6968 2.4951 14.1499 3.34287 14.3335 4.26581C14.5171 5.18874 14.4228 6.14539 14.0627 7.01478C13.7026 7.88416 13.0928 8.62724 12.3104 9.15004C11.5279 9.67284 10.6081 9.95188 9.66704 9.95188C8.40518 9.95188 7.195 9.45061 6.30273 8.55834C5.41045 7.66606 4.90918 6.45588 4.90918 5.19402Z" fill="#7E6969"/>
</g>
<defs>
<clipPath id="clip0_281_748">
<rect width="17.6712" height="19.4833" fill="white" transform="translate(0.831055 0.436157)"/>
</clipPath>
</defs>
</svg>
