<svg fill="none">
	<defs>
		<svg width="100%" height="100%" viewBox="0 0 20 17" fill="none" xmlns="http://www.w3.org/2000/svg" id="email">
			<path d="M12.7189 0.450329C11.0317 0.407345 9.34359 0.407345 7.65635 0.450329H7.6105C6.52799 0.446063 5.44644 0.515315 4.37332 0.657608C3.5338 0.763611 2.75141 1.13938 2.14388 1.72839C1.56274 2.32963 1.1915 3.1026 1.08551 3.93204C0.948701 4.97865 0.884867 6.03351 0.894471 7.08898V7.13961C0.876322 7.99929 0.876322 8.85897 0.894471 9.72438V9.77501C0.884873 10.8305 0.948707 11.8853 1.08551 12.932C1.1915 13.7614 1.56274 14.5344 2.14388 15.1356C2.7518 15.7236 3.53415 16.0983 4.37332 16.2035C5.44611 16.3461 6.52733 16.4156 7.60954 16.4118H7.66017C9.35183 16.4538 11.0273 16.4538 12.7227 16.4118H12.7686C13.8508 16.4156 14.932 16.3461 16.0048 16.2035C16.8433 16.1138 17.6261 15.7406 18.2239 15.1458C18.8217 14.551 19.1987 13.77 19.2926 12.932C19.4294 11.8853 19.4933 10.8305 19.4837 9.77501V9.72438C19.5018 8.8647 19.5018 8.00502 19.4837 7.13961V7.08898C19.4933 6.03351 19.4294 4.97865 19.2926 3.93204C19.1866 3.1026 18.8154 2.32963 18.2343 1.72839C17.627 1.13957 16.8449 0.76381 16.0058 0.657608C14.9326 0.515948 13.8511 0.447334 12.7686 0.452239L12.7189 0.450329ZM6.1882 4.84139C6.03987 4.75374 5.8628 4.7286 5.69593 4.7715C5.52907 4.8144 5.38608 4.92184 5.29843 5.07016C5.21078 5.21849 5.18563 5.39556 5.22854 5.56243C5.27144 5.72929 5.37887 5.87228 5.5272 5.95993L8.07568 7.46724C8.69947 7.90372 9.4301 8.16256 10.1895 8.21612C10.9491 8.16228 11.6797 7.9031 12.3034 7.46629L14.8519 5.95898C15.0002 5.87132 15.1076 5.72834 15.1505 5.56147C15.1934 5.39461 15.1683 5.21754 15.0807 5.06921C15.0373 4.99576 14.9798 4.93159 14.9116 4.88034C14.8434 4.8291 14.7658 4.79179 14.6831 4.77055C14.5163 4.72764 14.3392 4.75278 14.1909 4.84044L11.6414 6.34775C11.2164 6.66338 10.7156 6.86109 10.1895 6.92087C9.66353 6.86109 9.16265 6.66338 8.73763 6.34775L6.1882 4.84139Z" fill="currentColor"/>
		</svg>,
		<svg width="100%" height="100%" viewBox="0 0 24 24" fill="none" xmlns="http://www.w3.org/2000/svg" id="support">
			<rect id="view-box" width="24" height="24" fill="none"/>
			<path id="Shape" d="M8,17.751a2.749,2.749,0,0,1,5.127-1.382C15.217,15.447,16,14,16,11.25v-3c0-3.992-2.251-6.75-5.75-6.75S4.5,4.259,4.5,8.25v3.5a.751.751,0,0,1-.75.75h-1A2.753,2.753,0,0,1,0,9.751v-1A2.754,2.754,0,0,1,2.75,6h.478c.757-3.571,3.348-6,7.022-6s6.264,2.429,7.021,6h.478a2.754,2.754,0,0,1,2.75,2.75v1a2.753,2.753,0,0,1-2.75,2.75H17.44A5.85,5.85,0,0,1,13.5,17.84,2.75,2.75,0,0,1,8,17.751Zm1.5,0a1.25,1.25,0,1,0,1.25-1.25A1.251,1.251,0,0,0,9.5,17.751Zm8-6.75h.249A1.251,1.251,0,0,0,19,9.751v-1A1.251,1.251,0,0,0,17.75,7.5H17.5Zm-16-2.25v1A1.251,1.251,0,0,0,2.75,11H3V7.5H2.75A1.251,1.251,0,0,0,1.5,8.751Z" transform="translate(1.75 2.25)" fill="currentColor"/>
		</svg>,
		<svg width="100%" height="100%" viewBox="0 0 36 36" fill="none" xmlns="http://www.w3.org/2000/svg" id="flag-en">
			<path fill="#00247D" d="M0 9.059V13h5.628zM4.664 31H13v-5.837zM23 25.164V31h8.335zM0 23v3.941L5.63 23zM31.337 5H23v5.837zM36 26.942V23h-5.631zM36 13V9.059L30.371 13zM13 5H4.664L13 10.837z"></path>
			<path fill="#CF1B2B" d="M25.14 23l9.712 6.801a3.977 3.977 0 0 0 .99-1.749L28.627 23H25.14zM13 23h-2.141l-9.711 6.8c.521.53 1.189.909 1.938 1.085L13 23.943V23zm10-10h2.141l9.711-6.8a3.988 3.988 0 0 0-1.937-1.085L23 12.057V13zm-12.141 0L1.148 6.2a3.994 3.994 0 0 0-.991 1.749L7.372 13h3.487z"></path>
			<path fill="#EEE" d="M36 21H21v10h2v-5.836L31.335 31H32a3.99 3.99 0 0 0 2.852-1.199L25.14 23h3.487l7.215 5.052c.093-.337.158-.686.158-1.052v-.058L30.369 23H36v-2zM0 21v2h5.63L0 26.941V27c0 1.091.439 2.078 1.148 2.8l9.711-6.8H13v.943l-9.914 6.941c.294.07.598.116.914.116h.664L13 25.163V31h2V21H0zM36 9a3.983 3.983 0 0 0-1.148-2.8L25.141 13H23v-.943l9.915-6.942A4.001 4.001 0 0 0 32 5h-.663L23 10.837V5h-2v10h15v-2h-5.629L36 9.059V9zM13 5v5.837L4.664 5H4a3.985 3.985 0 0 0-2.852 1.2l9.711 6.8H7.372L.157 7.949A3.968 3.968 0 0 0 0 9v.059L5.628 13H0v2h15V5h-2z"></path>
			<path fill="#CF1B2B" d="M21 15V5h-6v10H0v6h15v10h6V21h15v-6z"></path>
		</svg>,
		<svg width="100%" height="100%" viewBox="0 0 600 400" fill="none" xmlns="http://www.w3.org/2000/svg" id="flag-ua">
				<rect width="600" height="200" fill="#0057b7"/>
  			<rect y="200" width="600" height="200" fill="#ffd700"/>
		</svg>,
		<svg width="100%" height="100%" viewBox="0 0 20 17" fill="none" xmlns="http://www.w3.org/2000/svg" id="password">
			<path fill-rule="evenodd" clip-rule="evenodd" d="M8.66661 2.36402C7.77994 2.36402 6.92958 2.71625 6.30261 3.34322C5.67563 3.97019 5.3234 4.82055 5.3234 5.70722V7.19734C6.39132 7.15913 7.48694 7.14003 8.66661 7.14003C9.84628 7.14003 10.9419 7.15913 12.0098 7.19734V5.70722C12.0098 4.82055 11.6576 3.97019 11.0306 3.34322C10.4036 2.71625 9.55328 2.36402 8.66661 2.36402ZM3.413 5.70722V7.40462C2.66803 7.63818 2.00505 8.07922 1.50175 8.67607C0.998454 9.27292 0.675688 10.0009 0.571274 10.7746C0.410148 11.8643 0.32239 12.9637 0.308594 14.0652C0.32239 15.1668 0.410148 16.2661 0.571274 17.3559C0.695509 18.2988 1.14539 19.1686 1.84311 19.8148C2.54082 20.4611 3.44247 20.8432 4.39208 20.8949C5.75611 20.958 7.14211 20.9905 8.66661 20.9905C10.1911 20.9905 11.5762 20.958 12.9411 20.8949C13.8908 20.8432 14.7924 20.4611 15.4901 19.8148C16.1878 19.1686 16.6377 18.2988 16.7619 17.3559C16.923 16.2661 17.0108 15.1668 17.0246 14.0652C17.0111 12.9637 16.9237 11.8644 16.7629 10.7746C16.6584 10.0007 16.3355 9.27273 15.832 8.67587C15.3286 8.079 14.6654 7.63803 13.9202 7.40462V5.70722C13.9202 4.31388 13.3667 2.9776 12.3815 1.99236C11.3962 1.00712 10.06 0.453613 8.66661 0.453613C7.27327 0.453613 5.93699 1.00712 4.95175 1.99236C3.9665 2.9776 3.413 4.31388 3.413 5.70722ZM13.4426 14.0557C13.4426 13.8024 13.342 13.5594 13.1628 13.3803C12.9837 13.2011 12.7408 13.1005 12.4874 13.1005C12.2341 13.1005 11.9911 13.2011 11.812 13.3803C11.6329 13.5594 11.5322 13.8024 11.5322 14.0557V14.0652C11.5322 14.3186 11.6329 14.5615 11.812 14.7407C11.9911 14.9198 12.2341 15.0204 12.4874 15.0204C12.7408 15.0204 12.9837 14.9198 13.1628 14.7407C13.342 14.5615 13.4426 14.3186 13.4426 14.0652V14.0557ZM8.66661 13.1005C8.91995 13.1005 9.1629 13.2011 9.34204 13.3803C9.52118 13.5594 9.62181 13.8024 9.62181 14.0557V14.0652C9.62181 14.3186 9.52118 14.5615 9.34204 14.7407C9.1629 14.9198 8.91995 15.0204 8.66661 15.0204C8.41328 15.0204 8.17032 14.9198 7.99118 14.7407C7.81205 14.5615 7.71141 14.3186 7.71141 14.0652V14.0557C7.71141 13.8024 7.81205 13.5594 7.99118 13.3803C8.17032 13.2011 8.41328 13.1005 8.66661 13.1005ZM5.801 14.0557C5.801 13.8024 5.70037 13.5594 5.52123 13.3803C5.3421 13.2011 5.09914 13.1005 4.8458 13.1005C4.59247 13.1005 4.34951 13.2011 4.17037 13.3803C3.99124 13.5594 3.8906 13.8024 3.8906 14.0557V14.0652C3.8906 14.3186 3.99124 14.5615 4.17037 14.7407C4.34951 14.9198 4.59247 15.0204 4.8458 15.0204C5.09914 15.0204 5.3421 14.9198 5.52123 14.7407C5.70037 14.5615 5.801 14.3186 5.801 14.0652V14.0557Z" fill="currentColor"/>
		</svg>,
		<svg width="100%" height="100%" viewBox="0 0 15 17" fill="none" xmlns="http://www.w3.org/2000/svg" id="userID">
			<g clip-path="url(#clip0_281_192)">
				<path fill-rule="evenodd" clip-rule="evenodd" d="M6.12881 1.22336C6.13264 1.39538 6.068 1.56187 5.94911 1.68624C5.83022 1.81061 5.66681 1.88268 5.4948 1.8866C3.64983 1.92873 2.84865 2.11696 2.32744 2.6341C1.87758 3.0826 1.66828 3.74991 1.59761 5.15996C1.59591 5.24673 1.57682 5.33228 1.54148 5.41154C1.50614 5.49081 1.45525 5.56218 1.39184 5.62143C1.32843 5.68068 1.25378 5.72661 1.1723 5.7565C1.09083 5.7864 1.00418 5.79964 0.917498 5.79546C0.830812 5.79128 0.745846 5.76975 0.667627 5.73216C0.589407 5.69456 0.519523 5.64166 0.46211 5.57657C0.404696 5.51149 0.36092 5.43556 0.33337 5.35326C0.305821 5.27096 0.295058 5.18398 0.301719 5.09745C0.37443 3.6473 0.589846 2.53624 1.41209 1.71739C2.34375 0.788455 3.66886 0.630122 5.46626 0.589349C5.63815 0.585703 5.80447 0.650421 5.92869 0.769293C6.05292 0.888164 6.12489 1.05147 6.12881 1.22336ZM8.74506 1.22336C8.74898 1.05147 8.82095 0.888164 8.94517 0.769293C9.0694 0.650421 9.23571 0.585703 9.40761 0.589349C11.2036 0.630122 12.5288 0.788455 13.4611 1.71739C14.2833 2.53624 14.4994 3.6473 14.5721 5.09745C14.5787 5.18383 14.5679 5.27065 14.5403 5.35279C14.5128 5.43492 14.4691 5.51071 14.4118 5.57568C14.3545 5.64066 14.2847 5.6935 14.2067 5.7311C14.1286 5.7687 14.0438 5.79029 13.9573 5.7946C13.8708 5.79891 13.7843 5.78585 13.7029 5.7562C13.6215 5.72654 13.5469 5.68089 13.4834 5.62193C13.4199 5.56298 13.3689 5.49191 13.3333 5.41291C13.2977 5.33392 13.2783 5.24861 13.2763 5.162C13.2083 3.75195 12.997 3.08464 12.5464 2.63614C12.0259 2.11696 11.224 1.92873 9.37907 1.88864C9.29372 1.8867 9.2096 1.86794 9.13151 1.83343C9.05343 1.79893 8.98292 1.74936 8.92402 1.68756C8.86512 1.62576 8.819 1.55295 8.78829 1.47329C8.75758 1.39364 8.74289 1.30871 8.74506 1.22336ZM0.918065 9.67146C1.08978 9.66314 1.25778 9.7233 1.38519 9.83873C1.51259 9.95416 1.58899 10.1154 1.59761 10.2871C1.66556 11.6972 1.8769 12.3645 2.32744 12.813C2.84797 13.3322 3.64983 13.5211 5.4948 13.5605C5.58011 13.5624 5.66422 13.581 5.74232 13.6154C5.82042 13.6498 5.89098 13.6992 5.94998 13.7609C6.00898 13.8225 6.05526 13.8952 6.08618 13.9747C6.1171 14.0542 6.13204 14.1391 6.13017 14.2244C6.1283 14.3097 6.10964 14.3938 6.07526 14.4719C6.04088 14.55 5.99145 14.6206 5.9298 14.6796C5.86815 14.7386 5.79548 14.7849 5.71595 14.8158C5.63641 14.8467 5.55157 14.8617 5.46626 14.8598C3.66954 14.819 2.34511 14.6607 1.41277 13.7317C0.589846 12.9129 0.37443 11.7984 0.301719 10.3517C0.29751 10.2665 0.310116 10.1814 0.338815 10.1011C0.367514 10.0209 0.411745 9.94706 0.46898 9.88389C0.526216 9.82072 0.595336 9.76945 0.672391 9.733C0.749446 9.69655 0.832927 9.67564 0.918065 9.67146ZM13.9558 9.67146C14.1275 9.68008 14.2888 9.75647 14.4042 9.88388C14.5196 10.0113 14.5798 10.1793 14.5715 10.351C14.4994 11.7978 14.284 12.9122 13.4618 13.7311C12.5294 14.66 11.205 14.8183 9.40829 14.8591C9.32316 14.861 9.23848 14.8461 9.15909 14.8153C9.0797 14.7845 9.00716 14.7384 8.94561 14.6796C8.88405 14.6207 8.83469 14.5503 8.80033 14.4724C8.76598 14.3945 8.74731 14.3106 8.7454 14.2254C8.74348 14.1403 8.75835 14.0556 8.78915 13.9762C8.81996 13.8968 8.8661 13.8243 8.92494 13.7627C8.98378 13.7012 9.05418 13.6518 9.13209 13.6175C9.21001 13.5831 9.29394 13.5644 9.37907 13.5625C11.224 13.5204 12.0252 13.3315 12.5464 12.815C12.9963 12.3665 13.2056 11.6992 13.2763 10.2892C13.2802 10.2039 13.3009 10.1203 13.3372 10.0431C13.3735 9.96591 13.4247 9.89663 13.4878 9.83924C13.5509 9.78185 13.6248 9.73749 13.7051 9.7087C13.7854 9.67991 13.8706 9.66725 13.9558 9.67146Z" fill="currentColor"/>
				<path d="M5.27197 6.06444C5.27144 5.6372 5.39764 5.2194 5.63461 4.8639C5.87158 4.5084 6.20867 4.23117 6.60324 4.0673C6.99781 3.90343 7.43211 3.86028 7.85121 3.9433C8.27031 4.02632 8.65537 4.23178 8.95766 4.5337C9.25996 4.83562 9.46591 5.22041 9.54946 5.63941C9.63301 6.0584 9.5904 6.49276 9.42703 6.88753C9.26365 7.28231 8.98685 7.61975 8.63165 7.85717C8.27645 8.09459 7.85881 8.22131 7.43157 8.22131C7.14814 8.22149 6.86746 8.16585 6.60554 8.05755C6.34363 7.94925 6.1056 7.79043 5.90507 7.59014C5.70453 7.38986 5.54541 7.15204 5.43678 6.89026C5.32815 6.62848 5.27215 6.34786 5.27197 6.06444Z" fill="currentColor"/>
				<path d="M4.10715 11.403C4.01167 11.3118 3.95632 11.1864 3.95326 11.0543C3.9502 10.9223 3.99969 10.7945 4.09084 10.699C4.52892 10.2555 5.05078 9.90347 5.6261 9.66344C6.20141 9.4234 6.8187 9.30012 7.44208 9.30075C8.06546 9.30139 8.68249 9.42592 9.25732 9.66712C9.83214 9.90832 10.3533 10.2614 10.7905 10.7058C10.8559 10.7769 10.8992 10.8656 10.9151 10.961C10.9309 11.0564 10.9187 11.1543 10.8799 11.2429C10.8411 11.3314 10.7773 11.4067 10.6964 11.4597C10.6155 11.5126 10.5209 11.5408 10.4242 11.5409H4.44692C4.32022 11.5399 4.19867 11.4906 4.10715 11.403Z" fill="currentColor"/>
			</g>
			<defs>
				<clipPath id="clip0_281_192">
					<rect width="14.2704" height="14.2704" fill="white" transform="translate(0.301758 0.589355)"/>
				</clipPath>
			</defs>
		</svg>,
		<svg width="100%" height="100%" viewBox="0 0 19 20" fill="none" xmlns="http://www.w3.org/2000/svg" id="accountName">
			<g clip-path="url(#clip0_281_748)">
				<path d="M14.9281 12.7487C15.0332 12.8117 15.1641 12.8853 15.3102 12.9684C16.1357 13.3961 16.9056 13.9235 17.6027 14.5387C18.0759 14.9568 18.3898 15.5259 18.491 16.1492C18.5147 16.5178 18.4504 16.8867 18.3035 17.2255C18.1565 17.5643 17.931 17.8633 17.6457 18.0978C17.1342 18.6485 16.5191 19.0929 15.8356 19.4055C15.1521 19.718 14.4136 19.8927 13.6625 19.9194H5.67127C4.92015 19.8927 4.18168 19.718 3.49818 19.4055C2.81467 19.0929 2.19955 18.6485 1.68808 18.0978C1.40269 17.8634 1.17718 17.5644 1.03019 17.2255C0.883197 16.8867 0.818939 16.5178 0.842723 16.1492C0.943947 15.5259 1.25783 14.9568 1.73106 14.5387C2.42812 13.9235 3.19804 13.3961 4.02354 12.9684C4.17065 12.8853 4.30151 12.8117 4.40563 12.7487C5.99911 11.8072 7.81604 11.3105 9.66688 11.3105C11.5177 11.3105 13.3346 11.8072 14.9281 12.7487Z" fill="currentColor"/>
				<path d="M4.90918 5.19402C4.90918 4.253 5.18822 3.33312 5.71102 2.55069C6.23382 1.76827 6.9769 1.15844 7.84629 0.79833C8.71567 0.438219 9.67232 0.343997 10.5953 0.52758C11.5182 0.711163 12.366 1.16431 13.0314 1.8297C13.6968 2.4951 14.1499 3.34287 14.3335 4.26581C14.5171 5.18874 14.4228 6.14539 14.0627 7.01478C13.7026 7.88416 13.0928 8.62724 12.3104 9.15004C11.5279 9.67284 10.6081 9.95188 9.66704 9.95188C8.40518 9.95188 7.195 9.45061 6.30273 8.55834C5.41045 7.66606 4.90918 6.45588 4.90918 5.19402Z" fill="currentColor"/>
			</g>
			<defs>
				<clipPath id="clip0_281_748">
					<rect width="17.6712" height="19.4833" fill="white" transform="translate(0.831055 0.436157)"/>
				</clipPath>
			</defs>
		</svg>
	</defs>
</svg>
