<svg width="15" height="15" viewBox="0 0 15 15" fill="none" xmlns="http://www.w3.org/2000/svg">
<g clip-path="url(#clip0_281_192)">
<path fill-rule="evenodd" clip-rule="evenodd" d="M6.12881 1.22336C6.13264 1.39538 6.068 1.56187 5.94911 1.68624C5.83022 1.81061 5.66681 1.88268 5.4948 1.8866C3.64983 1.92873 2.84865 2.11696 2.32744 2.6341C1.87758 3.0826 1.66828 3.74991 1.59761 5.15996C1.59591 5.24673 1.57682 5.33228 1.54148 5.41154C1.50614 5.49081 1.45525 5.56218 1.39184 5.62143C1.32843 5.68068 1.25378 5.72661 1.1723 5.7565C1.09083 5.7864 1.00418 5.79964 0.917498 5.79546C0.830812 5.79128 0.745846 5.76975 0.667627 5.73216C0.589407 5.69456 0.519523 5.64166 0.46211 5.57657C0.404696 5.51149 0.36092 5.43556 0.33337 5.35326C0.305821 5.27096 0.295058 5.18398 0.301719 5.09745C0.37443 3.6473 0.589846 2.53624 1.41209 1.71739C2.34375 0.788455 3.66886 0.630122 5.46626 0.589349C5.63815 0.585703 5.80447 0.650421 5.92869 0.769293C6.05292 0.888164 6.12489 1.05147 6.12881 1.22336ZM8.74506 1.22336C8.74898 1.05147 8.82095 0.888164 8.94517 0.769293C9.0694 0.650421 9.23571 0.585703 9.40761 0.589349C11.2036 0.630122 12.5288 0.788455 13.4611 1.71739C14.2833 2.53624 14.4994 3.6473 14.5721 5.09745C14.5787 5.18383 14.5679 5.27065 14.5403 5.35279C14.5128 5.43492 14.4691 5.51071 14.4118 5.57568C14.3545 5.64066 14.2847 5.6935 14.2067 5.7311C14.1286 5.7687 14.0438 5.79029 13.9573 5.7946C13.8708 5.79891 13.7843 5.78585 13.7029 5.7562C13.6215 5.72654 13.5469 5.68089 13.4834 5.62193C13.4199 5.56298 13.3689 5.49191 13.3333 5.41291C13.2977 5.33392 13.2783 5.24861 13.2763 5.162C13.2083 3.75195 12.997 3.08464 12.5464 2.63614C12.0259 2.11696 11.224 1.92873 9.37907 1.88864C9.29372 1.8867 9.2096 1.86794 9.13151 1.83343C9.05343 1.79893 8.98292 1.74936 8.92402 1.68756C8.86512 1.62576 8.819 1.55295 8.78829 1.47329C8.75758 1.39364 8.74289 1.30871 8.74506 1.22336ZM0.918065 9.67146C1.08978 9.66314 1.25778 9.7233 1.38519 9.83873C1.51259 9.95416 1.58899 10.1154 1.59761 10.2871C1.66556 11.6972 1.8769 12.3645 2.32744 12.813C2.84797 13.3322 3.64983 13.5211 5.4948 13.5605C5.58011 13.5624 5.66422 13.581 5.74232 13.6154C5.82042 13.6498 5.89098 13.6992 5.94998 13.7609C6.00898 13.8225 6.05526 13.8952 6.08618 13.9747C6.1171 14.0542 6.13204 14.1391 6.13017 14.2244C6.1283 14.3097 6.10964 14.3938 6.07526 14.4719C6.04088 14.55 5.99145 14.6206 5.9298 14.6796C5.86815 14.7386 5.79548 14.7849 5.71595 14.8158C5.63641 14.8467 5.55157 14.8617 5.46626 14.8598C3.66954 14.819 2.34511 14.6607 1.41277 13.7317C0.589846 12.9129 0.37443 11.7984 0.301719 10.3517C0.29751 10.2665 0.310116 10.1814 0.338815 10.1011C0.367514 10.0209 0.411745 9.94706 0.46898 9.88389C0.526216 9.82072 0.595336 9.76945 0.672391 9.733C0.749446 9.69655 0.832927 9.67564 0.918065 9.67146ZM13.9558 9.67146C14.1275 9.68008 14.2888 9.75647 14.4042 9.88388C14.5196 10.0113 14.5798 10.1793 14.5715 10.351C14.4994 11.7978 14.284 12.9122 13.4618 13.7311C12.5294 14.66 11.205 14.8183 9.40829 14.8591C9.32316 14.861 9.23848 14.8461 9.15909 14.8153C9.0797 14.7845 9.00716 14.7384 8.94561 14.6796C8.88405 14.6207 8.83469 14.5503 8.80033 14.4724C8.76598 14.3945 8.74731 14.3106 8.7454 14.2254C8.74348 14.1403 8.75835 14.0556 8.78915 13.9762C8.81996 13.8968 8.8661 13.8243 8.92494 13.7627C8.98378 13.7012 9.05418 13.6518 9.13209 13.6175C9.21001 13.5831 9.29394 13.5644 9.37907 13.5625C11.224 13.5204 12.0252 13.3315 12.5464 12.815C12.9963 12.3665 13.2056 11.6992 13.2763 10.2892C13.2802 10.2039 13.3009 10.1203 13.3372 10.0431C13.3735 9.96591 13.4247 9.89663 13.4878 9.83924C13.5509 9.78185 13.6248 9.73749 13.7051 9.7087C13.7854 9.67991 13.8706 9.66725 13.9558 9.67146Z" fill="#7E6969"/>
<path d="M5.27197 6.06444C5.27144 5.6372 5.39764 5.2194 5.63461 4.8639C5.87158 4.5084 6.20867 4.23117 6.60324 4.0673C6.99781 3.90343 7.43211 3.86028 7.85121 3.9433C8.27031 4.02632 8.65537 4.23178 8.95766 4.5337C9.25996 4.83562 9.46591 5.22041 9.54946 5.63941C9.63301 6.0584 9.5904 6.49276 9.42703 6.88753C9.26365 7.28231 8.98685 7.61975 8.63165 7.85717C8.27645 8.09459 7.85881 8.22131 7.43157 8.22131C7.14814 8.22149 6.86746 8.16585 6.60554 8.05755C6.34363 7.94925 6.1056 7.79043 5.90507 7.59014C5.70453 7.38986 5.54541 7.15204 5.43678 6.89026C5.32815 6.62848 5.27215 6.34786 5.27197 6.06444Z" fill="#7E6969"/>
<path d="M4.10715 11.403C4.01167 11.3118 3.95632 11.1864 3.95326 11.0543C3.9502 10.9223 3.99969 10.7945 4.09084 10.699C4.52892 10.2555 5.05078 9.90347 5.6261 9.66344C6.20141 9.4234 6.8187 9.30012 7.44208 9.30075C8.06546 9.30139 8.68249 9.42592 9.25732 9.66712C9.83214 9.90832 10.3533 10.2614 10.7905 10.7058C10.8559 10.7769 10.8992 10.8656 10.9151 10.961C10.9309 11.0564 10.9187 11.1543 10.8799 11.2429C10.8411 11.3314 10.7773 11.4067 10.6964 11.4597C10.6155 11.5126 10.5209 11.5408 10.4242 11.5409H4.44692C4.32022 11.5399 4.19867 11.4906 4.10715 11.403Z" fill="#7E6969"/>
</g>
<defs>
<clipPath id="clip0_281_192">
<rect width="14.2704" height="14.2704" fill="white" transform="translate(0.301758 0.589355)"/>
</clipPath>
</defs>
</svg>
